<?xml version="1.0" standalone="no"?>
<!DOCTYPE svg PUBLIC "-//W3C//DTD SVG 20010904//EN"
 "http://www.w3.org/TR/2001/REC-SVG-20010904/DTD/svg10.dtd">
<svg version="1.0" xmlns="http://www.w3.org/2000/svg"
 width="700.000000pt" height="700.000000pt" viewBox="0 0 700.000000 700.000000"
 preserveAspectRatio="xMidYMid meet">
<metadata>
Created by potrace 1.11, written by Peter Selinger 2001-2013
</metadata>
<g transform="translate(0.000000,700.000000) scale(0.100000,-0.100000)"
fill="#000000" stroke="none">
<path d="M3278 6996 c-1 -2 -41 -6 -88 -10 -47 -4 -101 -9 -120 -12 -38 -5
-160 -23 -200 -30 -22 -3 -189 -40 -215 -48 -5 -1 -26 -6 -45 -10 -43 -10
-169 -49 -275 -86 -784 -273 -1469 -848 -1882 -1580 -156 -276 -284 -597 -349
-870 -50 -214 -72 -345 -91 -550 -16 -165 -9 -570 12 -714 3 -17 7 -49 9 -71
10 -83 18 -131 26 -165 5 -19 12 -48 14 -65 53 -294 197 -679 372 -992 205
-365 465 -680 810 -978 228 -197 603 -424 907 -549 160 -66 433 -153 571 -182
97 -21 215 -41 276 -49 25 -3 56 -7 69 -10 163 -31 695 -26 908 9 21 4 52 8
68 10 70 9 209 39 332 71 1059 281 1921 1032 2344 2043 50 118 124 333 150
437 20 78 24 91 34 138 13 56 55 298 61 352 4 33 9 76 11 95 8 70 10 517 3
595 -15 159 -21 210 -25 225 -2 8 -7 35 -10 60 -8 60 -40 213 -70 330 -71 280
-207 608 -356 861 -54 93 -167 269 -178 279 -4 3 -33 41 -66 85 -32 44 -69 91
-81 105 -12 14 -41 48 -64 75 -126 149 -341 353 -490 464 -41 31 -77 58 -80
62 -12 13 -201 139 -280 186 -368 220 -855 397 -1230 448 -19 3 -46 7 -60 10
-13 2 -52 7 -86 11 -33 3 -74 8 -90 10 -33 5 -540 14 -546 10z m505 -420 c26
-3 68 -8 95 -11 87 -10 236 -37 312 -55 41 -11 86 -21 100 -23 66 -12 401
-131 468 -166 9 -5 71 -36 138 -69 220 -110 421 -243 624 -417 83 -71 312
-308 381 -395 393 -493 621 -1059 676 -1675 14 -159 8 -530 -11 -630 -2 -11
-7 -46 -11 -79 -9 -78 -12 -92 -41 -226 -109 -490 -340 -951 -667 -1335 -74
-86 -271 -282 -347 -346 -36 -30 -67 -56 -70 -59 -8 -9 -152 -114 -200 -147
-163 -111 -527 -303 -572 -303 -8 0 -18 -4 -24 -9 -14 -15 -267 -97 -399 -129
-103 -26 -193 -43 -355 -67 -180 -26 -602 -26 -762 0 -13 2 -41 6 -63 10 -372
54 -715 171 -1055 357 -167 92 -372 235 -525 368 -87 74 -304 300 -376 390
-88 109 -207 282 -268 388 -49 85 -171 327 -171 340 0 4 -9 27 -20 50 -24 50
-100 275 -129 382 -21 80 -55 253 -66 333 -4 27 -8 57 -10 67 -26 134 -26 556
0 760 35 282 127 618 232 850 114 253 234 454 392 660 89 115 115 145 266 295
122 122 172 168 270 245 22 17 48 38 58 46 38 31 225 153 312 203 233 134 499
243 750 307 112 29 110 29 220 49 155 28 169 30 310 41 50 4 91 8 93 9 6 5
398 -3 445 -9z"/>
<path d="M1825 4320 c-237 -36 -230 -383 8 -405 23 -2 82 -7 130 -10 169 -10
359 -61 517 -139 485 -239 787 -703 814 -1251 5 -106 24 -159 73 -199 101 -85
255 -54 314 62 49 99 19 402 -68 667 -150 464 -475 846 -912 1073 -93 48 -263
117 -315 128 -10 2 -33 8 -50 13 -64 21 -242 51 -330 57 -50 3 -102 7 -116 8
-14 1 -43 -1 -65 -4z"/>
<path d="M5067 4324 c-1 -1 -36 -5 -77 -8 -279 -25 -529 -104 -773 -244 -148
-85 -317 -223 -435 -354 l-24 -26 44 -74 c44 -72 112 -207 142 -280 8 -21 19
-38 23 -38 4 1 25 24 46 53 75 104 208 229 334 315 66 45 233 135 233 125 0
-3 6 -1 13 5 14 11 105 43 187 65 82 23 159 35 257 42 153 11 170 13 200 28
151 78 152 290 2 367 -29 15 -161 34 -172 24z"/>
</g>
</svg>
